<svg width="20" height="20" viewBox="0 0 20 20" fill="none" xmlns="http://www.w3.org/2000/svg">
<path d="M3.67089 9.23689C4.09403 9.23689 4.40868 8.92224 4.40868 8.4991V8.0434H6.63291C6.98011 8.0434 7.22966 7.79385 7.22966 7.4575C7.22966 7.12116 6.98011 6.87161 6.63291 6.87161H4.40868V6.18807H5.68897C7.07776 6.18807 8 5.35262 8 4.09403C8 2.83544 7.07776 2 5.68897 2H3.68174C3.25859 2 2.94394 2.31465 2.94394 2.73779V4.95118H2.60759C2.2604 4.95118 2 5.21157 2 5.56962C2 5.92767 2.2604 6.18807 2.60759 6.18807H2.94394V6.87161H2.60759C2.27125 6.87161 2.01085 7.12116 2.01085 7.4575C2.01085 7.79385 2.27125 8.0434 2.60759 8.0434H2.94394V8.4991C2.94394 8.92224 3.25859 9.23689 3.67089 9.23689ZM4.40868 4.95118V3.23689H5.59132C6.16637 3.23689 6.53526 3.58409 6.53526 4.10488C6.53526 4.62568 6.16637 4.95118 5.59132 4.95118H4.40868Z" fill="#262626"/>
<path d="M13.724 17.4559L12.2283 15.5835L13.5841 14.1523C13.724 14.0124 13.7993 13.8295 13.7993 13.6573C13.7993 13.2914 13.5088 13.0117 13.1322 13.0009C12.9385 12.9901 12.7663 13.0762 12.6372 13.2161L10.9477 15.0347C10.7648 15.2392 10.6895 15.4006 10.6895 15.5727C10.6895 15.7342 10.754 15.8956 10.9047 16.0893L12.7233 18.3383C12.8416 18.4997 13.0138 18.575 13.229 18.575C13.6056 18.575 13.8962 18.2737 13.8962 17.9078C13.8962 17.7464 13.8424 17.6065 13.724 17.4559ZM9.73174 13.0009C9.31206 13.0009 9 13.313 9 13.7326V17.8325C9 18.2522 9.31206 18.575 9.73174 18.575C10.1406 18.575 10.4527 18.2522 10.4527 17.8325V13.7326C10.4527 13.313 10.1514 13.0009 9.73174 13.0009Z" fill="#262626"/>
<path d="M15.652 18.575C16.0609 18.575 16.373 18.2522 16.373 17.8325V14.346H18.3422C18.6973 14.346 18.9663 14.0877 18.9663 13.7326C18.9663 13.3775 18.6973 13.1193 18.3422 13.1193H15.6628C15.2323 13.1193 14.9203 13.4421 14.9203 13.8618V17.8325C14.9203 18.2522 15.2323 18.575 15.652 18.575Z" fill="#262626"/>
<line x1="4" y1="15.0101" x2="15.0309" y2="3.97919" stroke="#262626" stroke-width="1.4" stroke-linecap="round"/>
</svg>
