<svg width="16" height="16" viewBox="0 0 16 16" fill="none" xmlns="http://www.w3.org/2000/svg">
<path fill-rule="evenodd" clip-rule="evenodd" d="M8.00015 5.08427L6.50463 4.08725C5.37093 3.33144 3.83136 3.7403 3.222 4.95901C2.78595 5.83113 2.95688 6.88443 3.64633 7.57389L8.00015 11.9277L12.354 7.57389C13.0434 6.88443 13.2143 5.83113 12.7783 4.95901C12.1689 3.7403 10.6294 3.33144 9.49567 4.08725L8.00015 5.08427ZM7.40214 2.741C5.45867 1.44533 2.81941 2.14623 1.77482 4.23543C1.02732 5.73045 1.32032 7.53607 2.50223 8.71798L7.48166 13.6975C7.76801 13.9838 8.23228 13.9838 8.51864 13.6975L13.4981 8.71798C14.68 7.53606 14.973 5.73045 14.2255 4.23543C13.1809 2.14623 10.5416 1.44533 8.59816 2.741L8.00015 3.13967L7.40214 2.741Z" fill="black" fill-opacity="0.4"/>
</svg>
