<svg width="18" height="18" viewBox="0 0 18 18" fill="none" xmlns="http://www.w3.org/2000/svg">
<path fill-rule="evenodd" clip-rule="evenodd" d="M3 8C1.89543 8 1 7.10457 1 6L1 3C1 1.89543 1.89543 1 3 1L6 1C7.10457 1 8 1.89543 8 3L8 6C8 7.10457 7.10457 8 6 8L3 8ZM3 6L6 6L6 3L3 3L3 6Z" fill="#15B742"/>
<path fill-rule="evenodd" clip-rule="evenodd" d="M3 17C1.89543 17 1 16.1046 1 15L1 12C1 10.8954 1.89543 10 3 10L6 10C7.10457 10 8 10.8954 8 12V15C8 16.1046 7.10457 17 6 17H3ZM3 15L6 15V12L3 12L3 15Z" fill="#15B742"/>
<path fill-rule="evenodd" clip-rule="evenodd" d="M10 6C10 7.10457 10.8954 8 12 8H15C16.1046 8 17 7.10457 17 6V3C17 1.89543 16.1046 1 15 1L12 1C10.8954 1 10 1.89543 10 3L10 6ZM15 6H12L12 3L15 3L15 6Z" fill="#15B742"/>
<path fill-rule="evenodd" clip-rule="evenodd" d="M12 17C10.8954 17 10 16.1046 10 15V12C10 10.8954 10.8954 10 12 10H15C16.1046 10 17 10.8954 17 12V15C17 16.1046 16.1046 17 15 17H12ZM12 15H15V12H12V15Z" fill="#15B742"/>
</svg>
