<svg width="18" height="18" viewBox="0 0 18 18" fill="none" xmlns="http://www.w3.org/2000/svg">
<path fill-rule="evenodd" clip-rule="evenodd" d="M3 8C1.89543 8 1 7.10457 1 6L1 3C1 1.89543 1.89543 1 3 1L15 1C16.1046 1 17 1.89543 17 3V6C17 7.10457 16.1046 8 15 8L3 8ZM3 6L15 6L15 3L3 3L3 6Z" fill="#15B742"/>
<path fill-rule="evenodd" clip-rule="evenodd" d="M3 17C1.89543 17 1 16.1046 1 15L1 12C1 10.8954 1.89543 10 3 10L15 10C16.1046 10 17 10.8954 17 12V15C17 16.1046 16.1046 17 15 17L3 17ZM3 15L15 15V12L3 12L3 15Z" fill="#15B742"/>
</svg>
