<svg width="16" height="16" viewBox="0 0 16 16" fill="none" xmlns="http://www.w3.org/2000/svg">
<path fill-rule="evenodd" clip-rule="evenodd" d="M13.7416 7.50474C13.9827 7.23322 14.0608 6.86077 13.9516 6.50957C13.8424 6.15778 13.5684 5.90514 13.2209 5.83313L10.4256 5.25704C10.3435 5.23992 10.2728 5.18621 10.2315 5.11007L8.84258 2.51529C8.66939 2.19242 8.35414 2 7.99984 2C7.64554 2 7.33086 2.19242 7.15767 2.51529L5.76877 5.11007C5.72745 5.18621 5.65671 5.23992 5.57408 5.25704L2.77931 5.83313C2.43124 5.90514 2.15787 6.15778 2.04864 6.50957C1.93884 6.86077 2.0175 7.23322 2.25861 7.50474L4.19538 9.68397C4.25197 9.74831 4.27913 9.83508 4.26895 9.92185L3.93107 12.8725C3.88919 13.2397 4.03463 13.5891 4.32215 13.8063C4.49194 13.935 4.68833 14 4.88642 14C5.02395 14 5.16261 13.9687 5.29392 13.9055L7.87986 12.6577C7.95626 12.6211 8.04341 12.6211 8.11982 12.6577L10.7063 13.9055C11.0272 14.0601 11.39 14.0235 11.6775 13.8063C11.965 13.5891 12.1111 13.2397 12.0692 12.8725L11.7307 9.92244C11.7205 9.83508 11.7477 9.74831 11.8054 9.68397L13.7416 7.50474Z" fill="#FAD656"/>
</svg>
