<svg width="16" height="16" viewBox="0 0 16 16" fill="none" xmlns="http://www.w3.org/2000/svg">
<path fill-rule="evenodd" clip-rule="evenodd" d="M1.99979 5.00049C1.36015 5.00049 0.885537 5.59277 1.02421 6.21729L2.40507 12.4346C2.60917 13.3496 3.42069 14.0005 4.35819 14.0005H11.1492C11.616 14.0005 12.0516 13.8389 12.3963 13.564C12.7439 13.2866 12.9998 12.894 13.1014 12.4346L14.4832 6.21729C14.6219 5.59277 14.1463 5.00049 13.5066 5.00049H10.2889C9.95487 5.00049 9.64237 5.16748 9.45683 5.4458L9.41776 5.50439C8.62577 6.69189 6.88065 6.69189 6.08964 5.50439L6.05058 5.4458C5.86503 5.16748 5.55253 5.00049 5.21854 5.00049H1.99979ZM5.27811 8.76709C5.27811 8.34375 4.93729 8.00049 4.5164 8.00049C4.09452 8.00049 3.7537 8.34375 3.7537 8.76709V11.2339C3.7537 11.6572 4.09452 12.0005 4.5164 12.0005C4.93729 12.0005 5.27811 11.6572 5.27811 11.2339V8.76709ZM8.52811 8.76709C8.52811 8.34375 8.18632 8.00049 7.76542 8.00049C7.34452 8.00049 7.0037 8.34375 7.0037 8.76709V11.2339C7.0037 11.6572 7.34452 12.0005 7.76542 12.0005C8.18632 12.0005 8.52811 11.6572 8.52811 11.2339V8.76709ZM10.991 8.00049C11.4129 8.00049 11.7537 8.34375 11.7537 8.76709V11.2339C11.7537 11.6572 11.4129 12.0005 10.991 12.0005C10.5701 12.0005 10.2293 11.6572 10.2293 11.2339V8.76709C10.2293 8.34375 10.5701 8.00049 10.991 8.00049Z" fill="white"/>
<path fill-rule="evenodd" clip-rule="evenodd" d="M9.12556 1.07179C9.63835 1.2769 9.88776 1.85887 9.68265 2.37166L8.68265 4.87166C8.47754 5.38444 7.89557 5.63386 7.38278 5.42874C6.87 5.22363 6.62058 4.64166 6.8257 4.12888L7.8257 1.62888C8.03081 1.11609 8.61278 0.866676 9.12556 1.07179Z" fill="white"/>
</svg>
