<svg width="16" height="16" viewBox="0 0 16 16" fill="none" xmlns="http://www.w3.org/2000/svg">
<path d="M9.99951 5H6.00012C5.74951 5 5.49951 5.15 5.49951 5.5C5.49951 5.85 5.74951 5.96003 6.00012 5.96003H10.0001C10.2495 5.96003 10.4995 5.84766 10.4995 5.5C10.4995 5.15234 10.2495 5 9.99951 5Z" fill="black"/>
<path fill-rule="evenodd" clip-rule="evenodd" d="M0.999756 2.5C0.999756 1.5 1.76338 1 2.49976 1H13.4998C14.2361 1 14.9995 1.5 14.9995 2.5C14.9995 3.5 14.2361 3.96007 13.4998 3.96007V13.2041C13.4998 14.0248 12.6681 14.69 11.8475 14.69C11.4448 14.69 11.0593 14.5266 10.7793 14.2371C10.7058 14.161 10.5718 13.9423 10.4525 13.9441C10.378 13.9453 10.345 14.0294 10.3104 14.083C9.7745 14.9142 8.55901 14.9142 8.02313 14.083L8.00107 14.0488L8.0001 14.0483L7.99913 14.0488C7.69451 14.5213 6.98718 14.6837 6.66976 14.6808C5.94163 14.6741 5.63734 13.7975 5.33976 13.7975C4.91244 13.7975 5.01583 14.69 4.00014 14.69C3.19971 14.69 2.49976 14.0412 2.49976 13.2407L2.49976 3.96007C1.76338 3.96007 0.999756 3.5 0.999756 2.5ZM4.00014 3.16665C4.00014 2.79847 4.29861 2.5 4.6668 2.5H11.3334C11.7016 2.5 12.0001 2.79847 12.0001 3.16665V13.2041C12.0001 13.2884 11.9317 13.3567 11.8475 13.3567C11.3843 13.3567 11.266 12.4988 10.6698 12.5C10.1698 12.501 9.52777 12.8363 9.25006 13.2671L9.18978 13.3605C9.18689 13.365 9.18382 13.368 9.18382 13.368L9.18192 13.3695L9.18076 13.3701C9.17831 13.3714 9.17348 13.3731 9.16675 13.3731C9.16002 13.3731 9.1552 13.3714 9.15274 13.3701L9.14968 13.368C9.14968 13.368 9.14662 13.365 9.14373 13.3605L9.12167 13.3263C8.86359 12.9261 8.49937 12.5 7.99976 12.5C7.38446 12.5 7.11694 13.3552 6.66976 13.3552C6.22257 13.3552 6.13729 12.5 5.33976 12.5C4.68962 12.5 4.50688 13.3637 4.11612 13.3552C4.05751 13.3539 4.00014 13.31 4.00014 13.2407V3.16665Z" fill="black"/>
<path d="M9.99951 7H6.00012C5.74951 7 5.49951 7.15 5.49951 7.5C5.49951 7.85 5.74951 8 6.00012 8H10.0001C10.2495 8 10.4995 7.84766 10.4995 7.5C10.4995 7.15234 10.2495 7 9.99951 7Z" fill="black"/>
<path d="M8.99951 9L6.00012 9C5.74951 9 5.49951 9.15 5.49951 9.5C5.49951 9.85 5.74951 10 6.00012 10L9.00008 10C9.24951 10 9.49951 9.84766 9.49951 9.5C9.49951 9.15234 9.24951 9 8.99951 9Z" fill="black"/>
</svg>
